<mxfile host="app.diagrams.net" modified="2023-05-09T19:51:03.499Z" agent="Mozilla/5.0 (Windows NT 10.0; Win64; x64; rv:109.0) Gecko/20100101 Firefox/112.0" version="21.2.9" etag="emn7XjSmLBBMu7CAeLwL" type="github">
  <diagram name="PÃ¡gina-1" id="MBWFNrm8f6HPqK5PRfMQ">
    <mxGraphModel>
      <root>
        <mxCell id="0" />
        <mxCell id="1" parent="0" />
      </root>
    </mxGraphModel>
  </diagram>
</mxfile>
